<svg width="32" height="32" viewBox="0 0 32 32" fill="none" xmlns="http://www.w3.org/2000/svg">
<circle cx="16" cy="16" r="16" fill="#0085A5"/>
<g clip-path="url(#clip0_1025_8472)">
<path d="M16 8C14.4178 8 12.871 8.46919 11.5554 9.34824C10.2398 10.2273 9.21447 11.4767 8.60897 12.9385C8.00347 14.4003 7.84504 16.0089 8.15372 17.5607C8.4624 19.1126 9.22433 20.538 10.3431 21.6569C11.462 22.7757 12.8874 23.5376 14.4393 23.8463C15.9911 24.155 17.5997 23.9965 19.0615 23.391C20.5233 22.7855 21.7727 21.7602 22.6518 20.4446C23.5308 19.129 24 17.5823 24 16C23.9977 13.879 23.1541 11.8455 21.6543 10.3457C20.1545 8.84589 18.121 8.00229 16 8V8ZM16 22.6667C14.6815 22.6667 13.3925 22.2757 12.2962 21.5431C11.1999 20.8106 10.3454 19.7694 9.84081 18.5512C9.33622 17.333 9.2042 15.9926 9.46144 14.6994C9.71867 13.4062 10.3536 12.2183 11.286 11.286C12.2183 10.3536 13.4062 9.71867 14.6994 9.46143C15.9926 9.2042 17.3331 9.33622 18.5512 9.8408C19.7694 10.3454 20.8106 11.1999 21.5431 12.2962C22.2757 13.3925 22.6667 14.6815 22.6667 16C22.6647 17.7675 21.9617 19.4621 20.7119 20.7119C19.4621 21.9617 17.7675 22.6647 16 22.6667ZM19.3333 16C19.3333 16.1768 19.2631 16.3464 19.1381 16.4714C19.0131 16.5964 18.8435 16.6667 18.6667 16.6667H16.6667V18.6667C16.6667 18.8435 16.5964 19.013 16.4714 19.1381C16.3464 19.2631 16.1768 19.3333 16 19.3333C15.8232 19.3333 15.6536 19.2631 15.5286 19.1381C15.4036 19.013 15.3333 18.8435 15.3333 18.6667V16.6667H13.3333C13.1565 16.6667 12.987 16.5964 12.8619 16.4714C12.7369 16.3464 12.6667 16.1768 12.6667 16C12.6667 15.8232 12.7369 15.6536 12.8619 15.5286C12.987 15.4036 13.1565 15.3333 13.3333 15.3333H15.3333V13.3333C15.3333 13.1565 15.4036 12.987 15.5286 12.8619C15.6536 12.7369 15.8232 12.6667 16 12.6667C16.1768 12.6667 16.3464 12.7369 16.4714 12.8619C16.5964 12.987 16.6667 13.1565 16.6667 13.3333V15.3333H18.6667C18.8435 15.3333 19.0131 15.4036 19.1381 15.5286C19.2631 15.6536 19.3333 15.8232 19.3333 16Z" fill="white"/>
</g>
<defs>
<clipPath id="clip0_1025_8472">
<rect width="16" height="16" fill="white" transform="translate(8 8)"/>
</clipPath>
</defs>
</svg>
