<svg width="20" height="20" viewBox="0 0 20 20" fill="none" xmlns="http://www.w3.org/2000/svg">
<path d="M19.9999 19.1667C19.9999 19.3877 19.9121 19.5996 19.7558 19.7559C19.5995 19.9122 19.3876 20 19.1665 20H0.833212C0.612198 20 0.400236 19.9122 0.243956 19.7559C0.0876755 19.5996 -0.000121895 19.3877 -0.000121895 19.1667C-0.000121895 18.9456 0.0876755 18.7337 0.243956 18.5774C0.400236 18.4211 0.612198 18.3333 0.833212 18.3333H19.1665C19.3876 18.3333 19.5995 18.4211 19.7558 18.5774C19.9121 18.7337 19.9999 18.9456 19.9999 19.1667ZM0.242378 7.12665C0.0628134 6.79359 -0.0203764 6.41707 0.00214513 6.03936C0.0246666 5.66165 0.152008 5.29768 0.369878 4.98832C0.725927 4.46592 1.20275 4.03712 1.75988 3.73832L8.01071 0.484985C8.6251 0.165511 9.3074 -0.00128174 9.99988 -0.00128174C10.6924 -0.00128174 11.3747 0.165511 11.989 0.484985L18.239 3.74082C18.7962 4.03962 19.273 4.46842 19.629 4.99082C19.8469 5.30018 19.9743 5.66415 19.9968 6.04186C20.0193 6.41957 19.9361 6.79609 19.7565 7.12915C19.5632 7.49484 19.2733 7.80049 18.9183 8.01281C18.5633 8.22513 18.1569 8.33599 17.7432 8.33332H17.4999V15H18.3332C18.5542 15 18.7662 15.0878 18.9225 15.2441C19.0788 15.4003 19.1665 15.6123 19.1665 15.8333C19.1665 16.0543 19.0788 16.2663 18.9225 16.4226C18.7662 16.5789 18.5542 16.6667 18.3332 16.6667H1.66654C1.44553 16.6667 1.23357 16.5789 1.07729 16.4226C0.921009 16.2663 0.833212 16.0543 0.833212 15.8333C0.833212 15.6123 0.921009 15.4003 1.07729 15.2441C1.23357 15.0878 1.44553 15 1.66654 15H2.49988V8.33332H2.25654C1.84251 8.3359 1.43572 8.22474 1.08054 8.01196C0.725355 7.79917 0.435427 7.49294 0.242378 7.12665ZM4.16655 15H6.66655V8.33332H4.16655V15ZM8.33321 8.33332V15H11.6665V8.33332H8.33321ZM15.8332 8.33332H13.3332V15H15.8332V8.33332ZM1.71904 6.35415C1.77133 6.45055 1.84914 6.5307 1.94395 6.58582C2.03875 6.64094 2.1469 6.66891 2.25654 6.66665H17.7432C17.8529 6.66891 17.961 6.64094 18.0558 6.58582C18.1506 6.5307 18.2284 6.45055 18.2807 6.35415C18.3188 6.29045 18.3372 6.21693 18.3337 6.1428C18.3301 6.06867 18.3047 5.99724 18.2607 5.93749C18.0588 5.63741 17.7875 5.39044 17.4699 5.21749L11.2199 1.96165C10.8432 1.76617 10.4251 1.66413 10.0007 1.66413C9.57635 1.66413 9.15821 1.76617 8.78155 1.96165L2.53155 5.21749C2.21403 5.39099 1.94282 5.6382 1.74071 5.93832C1.69662 5.99782 1.67105 6.06901 1.66719 6.14297C1.66334 6.21693 1.68138 6.29039 1.71904 6.35415Z" fill="#273043"/>
</svg>
