<svg width="22" height="24" viewBox="0 0 22 24" fill="none" xmlns="http://www.w3.org/2000/svg">
<path d="M21.1684 4.28659L17.9249 17.3582C17.9045 17.3338 17.8842 17.3175 17.8597 17.2971L17.1018 16.6859L16.3562 17.6149V3.0927L21.1684 4.28659Z" fill="#008CB7"/>
<path d="M5.92492 1.6747C5.95344 1.81324 5.96567 1.94771 5.96567 2.0944V5.8309C5.96567 6.69474 5.30149 7.39558 4.48655 7.39558C3.67161 7.39558 3.00743 6.69474 3.00743 5.8309L3.01151 3.66723C3.01151 3.0927 3.43528 2.62818 3.96091 2.62818C4.48248 2.62818 4.91032 3.0927 4.91032 3.66723V5.48455H4.09538V3.66723C4.09538 3.52869 4.01389 3.44312 3.96091 3.44312C3.90387 3.44312 3.82645 3.52869 3.82645 3.66723L3.82238 5.8309C3.82238 6.24244 4.11983 6.58064 4.48655 6.58064C4.85328 6.58064 5.15073 6.24244 5.15073 5.8309V2.0944C5.15073 1.94771 5.12628 1.80509 5.08553 1.6747H0.831543V24H16.3562V20.8788L15.9609 21.3718C15.5901 21.8282 14.9219 21.9015 14.4655 21.5348L13.7035 20.9277L16.3562 17.6149V1.6747H5.92492ZM11.3647 3.21494C12.4159 3.21494 13.3124 3.86282 13.675 4.77962C13.7443 4.95076 13.7972 5.13005 13.8217 5.31749C13.8461 5.4438 13.8543 5.57419 13.8543 5.70458C13.8543 6.91477 12.9945 7.91715 11.8536 8.14533C11.6947 8.17793 11.5317 8.19423 11.3647 8.19423C9.9874 8.19423 8.87501 7.08183 8.87501 5.70458C8.87501 4.32733 9.9874 3.21494 11.3647 3.21494Z" fill="#3CA8CE"/>
<path d="M13.675 4.77962C13.7932 5.06485 13.8543 5.37861 13.8543 5.70458C13.8543 7.08183 12.7419 8.19423 11.3647 8.19423C9.9874 8.19423 8.87501 7.08183 8.87501 5.70458C8.87501 4.32733 9.9874 3.21494 11.3647 3.21494C12.4159 3.21494 13.3124 3.86282 13.675 4.77962Z" fill="#57C48A"/>
<path d="M5.96567 2.0944V5.8309C5.96567 6.69474 5.30149 7.39558 4.48655 7.39558C3.67161 7.39558 3.00743 6.69474 3.00743 5.8309L3.01151 3.66723C3.01151 3.0927 3.43528 2.62818 3.96091 2.62818C4.48248 2.62818 4.91032 3.0927 4.91032 3.66723V5.48455H4.09538V3.66723C4.09538 3.52869 4.01389 3.44312 3.96091 3.44312C3.90387 3.44312 3.82645 3.52869 3.82645 3.66723L3.82238 5.8309C3.82238 6.24244 4.11983 6.58064 4.48655 6.58064C4.85328 6.58064 5.15073 6.24244 5.15073 5.8309V2.0944C5.15073 1.94771 5.12628 1.80509 5.08553 1.6747H5.92492C5.95344 1.81324 5.96567 1.94771 5.96567 2.0944Z" fill="#183B6D"/>
<path d="M5.91677 1.63396C5.92085 1.64618 5.92085 1.66248 5.92492 1.6747H5.08553C5.08146 1.66248 5.07738 1.64618 5.07331 1.63396C4.90625 1.15314 4.48655 0.814941 4.00166 0.814941C3.52492 0.814941 3.09708 1.14092 2.93001 1.63396H2.0947C2.09878 1.54024 2.13137 1.44245 2.13137 1.44245C2.39623 0.578608 3.14597 0 4.00166 0C4.93884 0 5.72119 0.700849 5.91677 1.63396Z" fill="#183B6D"/>
<path d="M2.0621 9.00509H9.73477V9.82003H2.0621V9.00509Z" fill="#F9F9F9"/>
<path d="M2.0621 10.635H15.1012V11.4499H2.0621V10.635Z" fill="#F9F9F9"/>
<path d="M2.0621 12.2649H15.1012V13.0798H2.0621V12.2649Z" fill="#F9F9F9"/>
<path d="M2.0621 13.8947H7.76669V14.7097H2.0621V13.8947Z" fill="#F9F9F9"/>
<path d="M11.5562 7.06961C11.5427 7.06961 11.5293 7.06879 11.515 7.06757C11.4017 7.05616 11.2986 6.99749 11.2302 6.90621L10.0815 5.37412L10.7335 4.88557L11.6169 6.06356L14.7324 3.29358L15.2743 3.90234L11.8267 6.96693C11.7517 7.03334 11.6552 7.06961 11.5562 7.06961Z" fill="#F9F9F9"/>
<path d="M10.6394 1.6747H7.37959L7.56703 0.912732L10.6394 1.6747Z" fill="#008CB7"/>
<path d="M8.10489 19.1511H13.402V19.966H8.10489V19.1511Z" fill="#F9F9F9"/>
<path d="M12.7826 17.0608L12.693 17.1137C12.4893 17.2441 12.2855 17.3745 12.0899 17.5008C12.0736 17.509 12.0574 17.5212 12.0411 17.5294C12.0329 17.5171 12.0288 17.4968 12.0207 17.4805C12.0085 17.4112 12.0044 17.3419 11.9962 17.2727C11.9881 17.1463 11.9759 17.0037 11.931 16.8611C11.8169 16.4822 11.4461 16.148 11.0224 16.2458C10.8349 16.2866 10.6679 16.4047 10.5456 16.58C10.4071 16.7633 10.3297 16.963 10.2726 17.1586C10.2604 17.0445 10.2482 16.9304 10.2197 16.8081C10.1096 16.3559 9.84071 16.0217 9.47806 15.8913C9.02984 15.7324 8.48791 15.928 8.21898 16.3436C7.99894 16.6737 7.9419 17.1137 8.06007 17.5457C8.16193 17.9205 8.38197 18.2384 8.56125 18.4747L9.20913 17.9776C9.06652 17.7942 8.91168 17.5701 8.84648 17.3297C8.78944 17.13 8.80981 16.9263 8.89945 16.7918C8.96872 16.6859 9.10726 16.6248 9.20098 16.6574C9.29878 16.6941 9.38434 16.8285 9.42509 16.9956C9.45769 17.1382 9.46584 17.293 9.47399 17.4601C9.48214 17.566 9.48621 17.672 9.49844 17.7861C9.51473 17.9246 9.54733 18.108 9.66957 18.2913C9.81219 18.4747 10.0159 18.5766 10.2156 18.5766C10.2726 18.5766 10.3297 18.5684 10.3826 18.5521C10.5375 18.5073 10.7453 18.3891 10.8594 18.0591C10.9164 17.9124 10.9572 17.7657 10.9939 17.6149C11.0427 17.4234 11.0835 17.2564 11.1609 17.126C11.1731 17.1871 11.1772 17.2604 11.1854 17.3379C11.1935 17.4479 11.2057 17.5538 11.2302 17.6679C11.3361 18.0876 11.6703 18.3606 12.037 18.3688C12.2366 18.3606 12.3915 18.271 12.5259 18.1895C12.7297 18.0591 12.9293 17.9328 13.129 17.8024L13.2186 17.7453L12.7826 17.0608Z" fill="#F9F9F9"/>
<path d="M20.6183 21.4166C21.148 21.8404 21.2336 22.6105 20.8098 23.1362C20.386 23.6659 19.62 23.7514 19.0903 23.3277C18.7154 23.0261 18.5646 22.5494 18.6624 22.1093L16.6536 20.5039L17.33 19.6564L19.3388 21.2659C19.7463 21.0744 20.2434 21.1192 20.6183 21.4166Z" fill="#39A871"/>
<path d="M17.9249 17.3582C18.3283 17.729 18.3772 18.3565 18.0268 18.7885L17.3667 19.6115L17.33 19.6564L16.6536 20.5039L16.3562 20.8788L15.9609 21.3718C15.5901 21.8282 14.9219 21.9015 14.4655 21.5348L13.7035 20.9277L16.3562 17.6149L17.1018 16.6859L17.8597 17.2971C17.8842 17.3175 17.9045 17.3338 17.9249 17.3582Z" fill="#39A871"/>
</svg>
