<svg width="12" height="12" viewBox="0 0 12 12" fill="none" xmlns="http://www.w3.org/2000/svg">
<path d="M8.96875 0.6875H3.03125C1.73883 0.6875 0.6875 1.73883 0.6875 3.03125V8.96875C0.6875 10.2612 1.73883 11.3125 3.03125 11.3125H8.96875C10.2612 11.3125 11.3125 10.2612 11.3125 8.96875V3.03125C11.3125 1.73883 10.2612 0.6875 8.96875 0.6875ZM6 8.92969C4.38455 8.92969 3.07031 7.61545 3.07031 6C3.07031 4.38455 4.38455 3.07031 6 3.07031C7.61545 3.07031 8.92969 4.38455 8.92969 6C8.92969 7.61545 7.61545 8.92969 6 8.92969ZM9.35938 3.22656C9.03574 3.22656 8.77344 2.96426 8.77344 2.64062C8.77344 2.31699 9.03574 2.05469 9.35938 2.05469C9.68301 2.05469 9.94531 2.31699 9.94531 2.64062C9.94531 2.96426 9.68301 3.22656 9.35938 3.22656Z" fill="#0085A5"/>
</svg>
