<svg width="20" height="20" viewBox="0 0 20 20" fill="none" xmlns="http://www.w3.org/2000/svg">
<g clip-path="url(#clip0_998_7985)">
<path d="M0.0314941 1.86829H11.6713V3.72415H0.0314941V1.86829Z" fill="#273043"/>
<path d="M11.6714 1.27624C11.6714 0.653508 11.1638 0.145813 10.541 0.145813H1.16266C0.539883 0.145813 0.0322266 0.653508 0.0322266 1.27624V1.4571H11.6714V1.27624Z" fill="#273043"/>
<path d="M11.6714 6.88929V4.13519H0.0322266V6.88929C0.0322266 7.5141 0.539883 8.01972 1.16266 8.01972H10.541C11.1637 8.01968 11.6714 7.5141 11.6714 6.88929ZM3.60973 6.87703H1.7132C1.54301 6.87703 1.40492 6.73902 1.40492 6.56875C1.40492 6.39847 1.54301 6.26047 1.7132 6.26047H3.60973C3.77992 6.26047 3.91801 6.39847 3.91801 6.56875C3.91801 6.73902 3.77992 6.87703 3.60973 6.87703ZM5.36215 5.59871H1.72344C1.55324 5.59871 1.41516 5.4607 1.41516 5.29043C1.41516 5.12011 1.55324 4.98215 1.72344 4.98215H5.36219C5.53238 4.98215 5.67047 5.12015 5.67047 5.29043C5.67047 5.4607 5.53238 5.59871 5.36215 5.59871Z" fill="#273043"/>
<path d="M18.8381 11.9803H9.45978C8.83704 11.9803 8.32935 12.4859 8.32935 13.1107V18.7238C8.32935 19.3465 8.837 19.8542 9.45978 19.8542H18.8381C19.4609 19.8542 19.9686 19.3465 19.9686 18.7238V13.1107C19.9685 12.4859 19.4609 11.9803 18.8381 11.9803ZM10.0563 15.8506H10.413C10.5832 15.8506 10.7213 15.9886 10.7213 16.1588C10.7213 16.3292 10.5832 16.4671 10.413 16.4671H10.0563C9.8861 16.4671 9.74802 16.3291 9.74802 16.1588C9.74802 15.9885 9.8861 15.8506 10.0563 15.8506ZM11.9633 18.1915H10.067C9.89677 18.1915 9.75868 18.0534 9.75868 17.8832C9.75868 17.7129 9.89677 17.5749 10.067 17.5749H11.9633C12.1335 17.5749 12.2716 17.7129 12.2716 17.8832C12.2716 18.0534 12.1335 18.1915 11.9633 18.1915ZM12.1417 16.4671H11.785C11.6149 16.4671 11.4768 16.3291 11.4768 16.1588C11.4768 15.9885 11.6149 15.8506 11.785 15.8506H12.1417C12.3119 15.8506 12.45 15.9886 12.45 16.1588C12.45 16.3292 12.3119 16.4671 12.1417 16.4671ZM13.8704 16.4671H13.5138C13.3436 16.4671 13.2055 16.3291 13.2055 16.1588C13.2055 15.9885 13.3436 15.8506 13.5138 15.8506H13.8704C14.0406 15.8506 14.1787 15.9886 14.1787 16.1588C14.1788 16.3292 14.0407 16.4671 13.8704 16.4671ZM15.5992 16.4671H15.2425C15.0723 16.4671 14.9342 16.3291 14.9342 16.1588C14.9342 15.9885 15.0723 15.8506 15.2425 15.8506H15.5992C15.7694 15.8506 15.9075 15.9886 15.9075 16.1588C15.9075 16.3292 15.7694 16.4671 15.5992 16.4671ZM18.2424 14.2586H13.8704C13.7002 14.2586 13.5622 14.1206 13.5622 13.9503C13.5622 13.78 13.7002 13.642 13.8704 13.642H18.2424C18.4126 13.642 18.5507 13.78 18.5507 13.9503C18.5507 14.1206 18.4126 14.2586 18.2424 14.2586Z" fill="#273043"/>
<path d="M13.9343 3.90293C13.9466 3.91937 13.9589 3.93582 13.9734 3.95019L14.8962 4.87301C14.9578 4.93465 15.0359 4.96344 15.114 4.96344C15.1942 4.96344 15.2723 4.93465 15.3319 4.87301C15.4531 4.75383 15.4531 4.55855 15.3319 4.43726L14.9352 4.04062H16.0245C16.6925 4.04062 17.2371 4.58527 17.2371 5.25527V9.53441C17.2371 9.705 17.3748 9.84269 17.5454 9.84269C17.716 9.84269 17.8537 9.705 17.8537 9.53441V5.25531C17.8537 4.24617 17.0336 3.42406 16.0245 3.42406H14.9352L15.3318 3.02738C15.4531 2.90613 15.4531 2.7109 15.3318 2.59164C15.2126 2.47035 15.0174 2.47035 14.8961 2.59164L13.9733 3.51445C13.9589 3.52886 13.9466 3.54527 13.9342 3.56172C13.9116 3.59461 13.8972 3.6316 13.889 3.67066C13.8849 3.69121 13.8828 3.71176 13.8828 3.73234C13.8828 3.75285 13.8849 3.77343 13.889 3.79398C13.8973 3.83308 13.9117 3.87004 13.9343 3.90293Z" fill="#273043"/>
<path d="M6.06663 15.8689C6.05429 15.8524 6.04198 15.836 6.02757 15.8216L5.10476 14.8988C4.98351 14.7776 4.78823 14.7776 4.66901 14.8988C4.54776 15.018 4.54776 15.2133 4.66901 15.3345L5.06569 15.7312H3.9764C3.30843 15.7312 2.76378 15.1865 2.76378 14.5165V10.2374C2.76378 10.0668 2.62608 9.92908 2.4555 9.92908C2.28491 9.92908 2.14722 10.0668 2.14722 10.2374V14.5165C2.14722 15.5256 2.96729 16.3477 3.97644 16.3477H5.06573L4.66905 16.7444C4.5478 16.8657 4.5478 17.0609 4.66905 17.1802C4.72866 17.2419 4.80675 17.2706 4.8869 17.2706C4.96499 17.2706 5.04312 17.2419 5.10476 17.1802L6.02757 16.2574C6.04194 16.2429 6.05429 16.2265 6.06663 16.2101C6.08925 16.1772 6.10362 16.1402 6.11187 16.1011C6.11597 16.0806 6.11804 16.0601 6.11804 16.0395C6.11804 16.019 6.11597 15.9984 6.11187 15.9778C6.10362 15.9388 6.08921 15.9018 6.06663 15.8689Z" fill="#273043"/>
</g>
<defs>
<clipPath id="clip0_998_7985">
<rect width="20" height="20" fill="white"/>
</clipPath>
</defs>
</svg>
