<svg width="20" height="20" viewBox="0 0 20 20" fill="none" xmlns="http://www.w3.org/2000/svg">
<path fill-rule="evenodd" clip-rule="evenodd" d="M8.24081 9.76846C8.24081 10.7912 7.41171 11.6203 6.38896 11.6203C5.36621 11.6203 4.53711 10.7912 4.53711 9.76846C4.53711 8.74571 5.36621 7.91663 6.38896 7.91663C7.41171 7.91663 8.24081 8.74571 8.24081 9.76846ZM7.40748 9.76846C7.40748 10.331 6.95148 10.787 6.38896 10.787C5.82645 10.787 5.37044 10.331 5.37044 9.76846C5.37044 9.20596 5.82645 8.74996 6.38896 8.74996C6.95148 8.74996 7.40748 9.20596 7.40748 9.76846Z" fill="black"/>
<path d="M4.58333 14.5833C4.58333 13.5861 5.39171 12.7777 6.38889 12.7777C7.38607 12.7777 8.19444 13.5861 8.19444 14.5833H9.02775C9.02775 13.1259 7.84631 11.9444 6.38889 11.9444C4.93147 11.9444 3.75 13.1259 3.75 14.5833H4.58333Z" fill="black"/>
<path fill-rule="evenodd" clip-rule="evenodd" d="M15.8334 8.74998C15.8334 8.98006 15.6468 9.16665 15.4167 9.16665H10.8334C10.6033 9.16665 10.4167 8.98006 10.4167 8.74998C10.4167 8.5199 10.6033 8.33331 10.8334 8.33331H15.4167C15.6468 8.33331 15.8334 8.5199 15.8334 8.74998Z" fill="black"/>
<path fill-rule="evenodd" clip-rule="evenodd" d="M15.8334 11.25C15.8334 11.4801 15.6468 11.6666 15.4167 11.6666H10.8334C10.6033 11.6666 10.4167 11.4801 10.4167 11.25C10.4167 11.0199 10.6033 10.8333 10.8334 10.8333H15.4167C15.6468 10.8333 15.8334 11.0199 15.8334 11.25Z" fill="black"/>
<path fill-rule="evenodd" clip-rule="evenodd" d="M15.8334 13.75C15.8334 13.9801 15.6468 14.1666 15.4167 14.1666H10.8334C10.6033 14.1666 10.4167 13.9801 10.4167 13.75C10.4167 13.5199 10.6033 13.3333 10.8334 13.3333H15.4167C15.6468 13.3333 15.8334 13.5199 15.8334 13.75Z" fill="black"/>
<path fill-rule="evenodd" clip-rule="evenodd" d="M7.50008 3.33331C6.80972 3.33331 6.25008 3.89295 6.25008 4.58331H3.75008C2.59949 4.58331 1.66675 5.51605 1.66675 6.66665V14.5833C1.66675 15.7339 2.59949 16.6666 3.75008 16.6666H16.2501C17.4007 16.6666 18.3334 15.7339 18.3334 14.5833V6.66665C18.3334 5.51605 17.4007 4.58331 16.2501 4.58331H13.7501C13.7501 3.89295 13.1904 3.33331 12.5001 3.33331H7.50008ZM13.7501 5.41665C13.7501 6.107 13.1904 6.66665 12.5001 6.66665H7.50008C6.80972 6.66665 6.25008 6.107 6.25008 5.41665H3.75008C3.05972 5.41665 2.50008 5.97629 2.50008 6.66665V14.5833C2.50008 15.2736 3.05972 15.8333 3.75008 15.8333H16.2501C16.9404 15.8333 17.5001 15.2736 17.5001 14.5833V6.66665C17.5001 5.97629 16.9404 5.41665 16.2501 5.41665H13.7501ZM7.08342 4.58331C7.08342 4.3532 7.26997 4.16665 7.50008 4.16665H12.5001C12.7302 4.16665 12.9167 4.3532 12.9167 4.58331V5.41665C12.9167 5.64676 12.7302 5.83331 12.5001 5.83331H7.50008C7.26997 5.83331 7.08342 5.64676 7.08342 5.41665V4.58331Z" fill="black"/>
</svg>
