<svg width="20" height="20" viewBox="0 0 20 20" fill="none" xmlns="http://www.w3.org/2000/svg">
<path d="M9.96089 6.27384C10.5515 6.27384 11.1175 5.97618 11.5546 5.43595C11.9539 4.94259 12.1828 4.32032 12.1828 3.72814C12.1828 2.53517 11.2277 1.63556 9.96089 1.63556C8.69409 1.63556 7.73901 2.534 7.73901 3.72814C7.73901 4.32032 7.96792 4.94259 8.36714 5.43595C8.80425 5.97657 9.37026 6.27384 9.96089 6.27384ZM9.96089 2.28009C10.875 2.28009 11.5382 2.88907 11.5382 3.72814C11.5382 4.78282 10.6753 5.62931 9.96089 5.62931C9.08706 5.62931 8.38354 4.58907 8.38354 3.72814C8.38354 2.89064 9.04683 2.28009 9.96089 2.28009Z" fill="#0D0A0B"/>
<path d="M7.33158 9.36682L7.10541 12.593C7.10244 12.6352 7.1078 12.6776 7.12121 12.7178C7.13462 12.7579 7.1558 12.795 7.18355 12.827C7.2113 12.8589 7.24507 12.8851 7.28294 12.904C7.3208 12.9229 7.36202 12.9342 7.40424 12.9371H7.4269C7.50842 12.937 7.58689 12.9061 7.64653 12.8505C7.70617 12.7949 7.74256 12.7188 7.74838 12.6375L7.97455 9.41409C7.97753 9.37187 7.97216 9.32948 7.95875 9.28934C7.94534 9.2492 7.92416 9.21209 7.89641 9.18013C7.86866 9.14817 7.83489 9.122 7.79703 9.10309C7.75916 9.08419 7.71794 9.07293 7.67573 9.06995C7.63351 9.06697 7.59112 9.07234 7.55097 9.08575C7.51083 9.09916 7.47372 9.12034 7.44177 9.14809C7.40981 9.17584 7.38363 9.20961 7.36473 9.24748C7.34582 9.28534 7.33456 9.32656 7.33158 9.36878V9.36682Z" fill="#0D0A0B"/>
<path d="M14.3317 12.9367C14.4191 12.929 14.4999 12.8869 14.5564 12.8197C14.6128 12.7525 14.6403 12.6656 14.6328 12.5781C14.6328 12.5781 14.2922 10.1356 14.2422 9.31604C14.1496 7.84456 13.2508 6.66409 11.8465 6.44924C11.3528 6.37346 10.4559 6.31643 9.98715 6.31604C9.34727 6.32713 8.70839 6.37133 8.07308 6.44846C7.41444 6.53863 6.8112 6.86566 6.37621 7.36838C5.91918 7.89612 5.71488 8.57073 5.67308 9.3176C5.62621 10.1379 5.31566 12.5817 5.31566 12.5817C5.31043 12.624 5.31367 12.667 5.32519 12.7081C5.3367 12.7492 5.35627 12.7876 5.38276 12.8211C5.40924 12.8546 5.44212 12.8825 5.47947 12.9031C5.51682 12.9238 5.55791 12.9368 5.60034 12.9415C5.64277 12.9462 5.68571 12.9423 5.72665 12.9303C5.7676 12.9182 5.80574 12.8981 5.83885 12.8712C5.87197 12.8442 5.8994 12.811 5.91956 12.7734C5.93972 12.7357 5.95221 12.6945 5.95629 12.652C5.95629 12.652 6.27152 10.1817 6.31644 9.35315C6.38051 8.17893 7.07543 7.23518 8.16097 7.08752C8.76685 7.01394 9.37613 6.97169 9.98636 6.96096C10.4231 6.96096 11.2899 7.01643 11.7485 7.08674C12.2527 7.16307 12.7137 7.41515 13.05 7.79846C13.4078 8.2094 13.5629 8.76135 13.5969 9.3551C13.6465 10.1848 13.9926 12.6555 13.9926 12.6555C14.0051 12.7356 14.0465 12.8085 14.109 12.8602C14.1714 12.912 14.2506 12.9392 14.3317 12.9367Z" fill="#0D0A0B"/>
<path d="M12.2367 9.06797C12.1943 9.07089 12.1528 9.08217 12.1148 9.10118C12.0767 9.12018 12.0428 9.14653 12.015 9.17871C11.9872 9.21088 11.966 9.24824 11.9527 9.28863C11.9394 9.32903 11.9342 9.37166 11.9375 9.41406L12.164 12.6398C12.1697 12.7212 12.2059 12.7974 12.2655 12.8531C12.3251 12.9087 12.4036 12.9397 12.4851 12.9398H12.5082C12.5934 12.9337 12.6727 12.8941 12.7287 12.8296C12.7848 12.765 12.8129 12.6809 12.807 12.5957L12.5804 9.36953C12.5777 9.32715 12.5666 9.28571 12.5479 9.24761C12.5291 9.2095 12.503 9.17547 12.4711 9.14746C12.4392 9.11945 12.402 9.09801 12.3618 9.08437C12.3216 9.07073 12.2791 9.06516 12.2367 9.06797Z" fill="#0D0A0B"/>
<path d="M12.0172 15.8547L13.5672 14.3437C13.6102 14.3018 13.6407 14.2486 13.6551 14.1902C13.6695 14.1319 13.6673 14.0706 13.6487 14.0135C13.6301 13.9563 13.5959 13.9054 13.55 13.8667C13.5041 13.8279 13.4482 13.8028 13.3887 13.7941L11.2469 13.4816L10.2891 11.5422C10.2625 11.4882 10.2213 11.4428 10.1702 11.411C10.1191 11.3792 10.0602 11.3624 10 11.3624C9.93986 11.3624 9.8809 11.3792 9.82981 11.411C9.77873 11.4428 9.73756 11.4882 9.71096 11.5422L8.75315 13.4828L6.61135 13.7953C6.55187 13.804 6.49599 13.8291 6.45004 13.8679C6.40409 13.9066 6.3699 13.9575 6.35133 14.0146C6.33276 14.0718 6.33055 14.133 6.34496 14.1914C6.35936 14.2498 6.3898 14.3029 6.43283 14.3449L7.98283 15.8558L7.61721 17.9875C7.60686 18.0469 7.6134 18.108 7.63609 18.1639C7.65878 18.2198 7.6967 18.2683 7.74554 18.3037C7.79438 18.3391 7.85218 18.3601 7.91236 18.3642C7.97254 18.3684 8.03269 18.3556 8.08596 18.3273L10 17.3203L11.9141 18.3273C11.9604 18.3516 12.0118 18.3643 12.0641 18.3644C12.111 18.3644 12.1574 18.3541 12.1999 18.3342C12.2424 18.3144 12.2801 18.2855 12.3104 18.2497C12.3406 18.2138 12.3626 18.1717 12.375 18.1264C12.3873 18.0812 12.3896 18.0337 12.3817 17.9875L12.0172 15.8547ZM9.85002 16.6711C9.4758 16.8617 8.36252 17.4523 8.36252 17.4523L8.64651 15.7957C8.65534 15.7442 8.65152 15.6914 8.6354 15.6417C8.61927 15.592 8.59131 15.547 8.55393 15.5105L7.35041 14.3386L9.01369 14.0968C9.06537 14.0893 9.11443 14.0693 9.15669 14.0386C9.19894 14.008 9.23311 13.9675 9.25627 13.9207L9.99846 12.4133L10.7406 13.9207C10.7638 13.9675 10.798 14.008 10.8402 14.0386C10.8825 14.0693 10.9316 14.0893 10.9832 14.0968L12.6465 14.3386L11.443 15.5105C11.4056 15.547 11.3776 15.592 11.3615 15.6417C11.3454 15.6914 11.3416 15.7442 11.3504 15.7957L11.6344 17.4523C11.6344 17.4523 10.5211 16.8609 10.1469 16.6711C10.1013 16.6465 10.0503 16.6336 9.99846 16.6336C9.94664 16.6336 9.89563 16.6465 9.85002 16.6711Z" fill="#0D0A0B"/>
<path d="M18.8528 14.7738L17.2867 14.5461L16.5863 13.1273C16.5598 13.0734 16.5187 13.0279 16.4676 12.9961C16.4166 12.9643 16.3576 12.9474 16.2975 12.9474C16.2373 12.9474 16.1784 12.9643 16.1273 12.9961C16.0763 13.0279 16.0351 13.0734 16.0086 13.1273L15.3082 14.5461L13.7422 14.7738C13.6827 14.7825 13.6269 14.8076 13.5809 14.8464C13.535 14.8852 13.5008 14.936 13.4822 14.9932C13.4636 15.0503 13.4614 15.1116 13.4758 15.1699C13.4902 15.2283 13.5207 15.2815 13.5637 15.3234L14.6965 16.4281L14.4289 17.9875C14.4186 18.0469 14.4251 18.1081 14.4478 18.164C14.4705 18.2199 14.5084 18.2683 14.5573 18.3037C14.6061 18.3391 14.6639 18.3601 14.7241 18.3643C14.7843 18.3685 14.8444 18.3557 14.8977 18.3273L16.2981 17.591L17.6988 18.3273C17.7451 18.3516 17.7966 18.3643 17.8488 18.3644C17.8958 18.3644 17.9421 18.3541 17.9847 18.3343C18.0272 18.3144 18.0649 18.2856 18.0951 18.2497C18.1254 18.2138 18.1474 18.1717 18.1597 18.1265C18.172 18.0812 18.1743 18.0338 18.1664 17.9875L17.8988 16.4281L19.0317 15.3234C19.0747 15.2815 19.1051 15.2283 19.1195 15.1699C19.1339 15.1116 19.1317 15.0503 19.1132 14.9932C19.0946 14.936 19.0604 14.8852 19.0145 14.8464C18.9685 14.8076 18.9126 14.7825 18.8531 14.7738H18.8528ZM16.1477 16.9418C15.902 17.0652 15.1746 17.4531 15.1746 17.4531L15.3606 16.3699C15.3694 16.3184 15.3656 16.2656 15.3495 16.2159C15.3333 16.1662 15.3054 16.1212 15.268 16.0848L14.4809 15.3176L15.5684 15.1613C15.6201 15.1538 15.6693 15.1338 15.7115 15.1031C15.7538 15.0723 15.7879 15.0317 15.811 14.9848L16.2973 13.9996L16.7836 14.9848C16.8068 15.0317 16.841 15.0722 16.8833 15.103C16.9257 15.1338 16.9748 15.1538 17.0266 15.1613L18.1137 15.3176L17.327 16.0848C17.2895 16.1212 17.2615 16.1662 17.2454 16.2159C17.2293 16.2656 17.2255 16.3184 17.2344 16.3699L17.4219 17.4531C17.4219 17.4531 16.6949 17.0652 16.4492 16.9418C16.4029 16.9168 16.3511 16.9038 16.2985 16.9038C16.2458 16.9038 16.194 16.9168 16.1477 16.9418Z" fill="#0D0A0B"/>
<path d="M6.25779 14.7738L4.69177 14.5461L3.99138 13.1273C3.96485 13.0734 3.92372 13.0279 3.87266 12.9961C3.82161 12.9643 3.76266 12.9474 3.70251 12.9474C3.64236 12.9474 3.58342 12.9643 3.53236 12.9961C3.4813 13.0279 3.44018 13.0734 3.41365 13.1273L2.71325 14.5461L1.14724 14.7738C1.08775 14.7825 1.03188 14.8076 0.985932 14.8464C0.939984 14.8852 0.905793 14.936 0.887222 14.9932C0.868652 15.0503 0.866444 15.1116 0.880846 15.1699C0.895248 15.2283 0.925687 15.2815 0.968723 15.3234L2.10154 16.4281L1.83591 17.9875C1.82556 18.0469 1.8321 18.1081 1.85479 18.164C1.87748 18.2199 1.9154 18.2683 1.96424 18.3037C2.01308 18.3391 2.07088 18.3601 2.13106 18.3643C2.19124 18.3685 2.25139 18.3557 2.30466 18.3273L3.70544 17.591L5.10583 18.3273C5.15213 18.3516 5.20358 18.3643 5.25583 18.3644C5.30276 18.3644 5.34911 18.3541 5.39164 18.3343C5.43418 18.3144 5.47188 18.2856 5.50211 18.2497C5.53235 18.2138 5.55439 18.1717 5.56671 18.1265C5.57902 18.0812 5.58131 18.0338 5.57341 17.9875L5.30583 16.4281L6.43865 15.3234C6.48168 15.2815 6.51212 15.2283 6.52652 15.1699C6.54093 15.1116 6.53872 15.0503 6.52015 14.9932C6.50158 14.936 6.46738 14.8852 6.42144 14.8464C6.37549 14.8076 6.31961 14.7825 6.26013 14.7738H6.25779ZM3.55466 16.9418L2.58005 17.4531L2.7656 16.3699C2.7745 16.3184 2.77072 16.2656 2.75459 16.2159C2.73845 16.1662 2.71046 16.1212 2.67302 16.0848L1.8863 15.3176L2.97341 15.1613C3.02518 15.1538 3.07434 15.1338 3.11666 15.103C3.15898 15.0722 3.1932 15.0317 3.21638 14.9848L3.70271 13.9996L4.18904 14.9848C4.21206 15.0317 4.24619 15.0723 4.28846 15.1031C4.33073 15.1338 4.37987 15.1538 4.43161 15.1613L5.51911 15.3176L4.732 16.0848C4.69462 16.1212 4.66666 16.1662 4.65054 16.2159C4.63441 16.2656 4.6306 16.3184 4.63943 16.3699L4.82536 17.4531L3.85232 16.9418C3.80752 16.9144 3.75601 16.8999 3.70349 16.8999C3.65097 16.8999 3.59946 16.9144 3.55466 16.9418Z" fill="#0D0A0B"/>
</svg>
