<svg width="20" height="20" viewBox="0 0 20 20" fill="none" xmlns="http://www.w3.org/2000/svg">
<path fill-rule="evenodd" clip-rule="evenodd" d="M11.6 8.4C10.39 7.19 8.34416 7.23583 7.03333 8.5475C5.86333 9.7175 4.96166 10.6183 3.79249 11.7883C2.48083 13.0992 2.43499 15.145 3.64499 16.355C4.85499 17.565 6.90083 17.5192 8.21166 16.2075C8.70999 15.7092 9.83249 14.5875 9.83249 14.5875C10.0758 14.3433 10.0758 13.9475 9.83249 13.7033C9.58833 13.4592 9.19249 13.4592 8.94833 13.7033L7.32749 15.3242C6.52333 16.1283 5.27166 16.2133 4.52916 15.4708C3.78666 14.7283 3.87166 13.4767 4.67583 12.6725L7.91666 9.43166C8.72166 8.62666 9.97333 8.54166 10.7158 9.28416C10.96 9.5275 11.3558 9.5275 11.6 9.28416C11.8442 9.04 11.8442 8.64416 11.6 8.4Z" fill="black"/>
<path fill-rule="evenodd" clip-rule="evenodd" d="M8.35915 11.6408C8.94498 12.2266 9.73998 12.5566 10.5683 12.5566C11.3975 12.5566 12.1925 12.2266 12.7783 11.6408C14.0166 10.4025 15.0758 9.34415 16.3141 8.10581C16.9 7.51915 17.2291 6.72415 17.2291 5.89581C17.2291 5.06665 16.9 4.27165 16.3141 3.68581C15.7283 3.09998 14.9333 2.77081 14.1041 2.77081C13.2758 2.77081 12.4808 3.09998 11.8942 3.68581C11.36 4.22081 10.7483 4.83248 10.1267 5.45415C9.88248 5.69831 9.88248 6.09415 10.1267 6.33831C10.37 6.58165 10.7666 6.58165 11.01 6.33831L12.7783 4.56998C13.13 4.21831 13.6066 4.02081 14.1041 4.02081C14.6016 4.02081 15.0783 4.21831 15.43 4.56998C15.7817 4.92165 15.9791 5.39831 15.9791 5.89581C15.9791 6.39331 15.7817 6.86998 15.43 7.22165L11.8942 10.7575C11.5433 11.1083 11.0658 11.3066 10.5683 11.3066C10.0717 11.3066 9.59415 11.1083 9.24248 10.7575C8.99915 10.5133 8.60332 10.5133 8.35915 10.7575C8.11498 11.0008 8.11498 11.3966 8.35915 11.6408Z" fill="black"/>
</svg>
