<svg width="20" height="20" viewBox="0 0 20 20" fill="none" xmlns="http://www.w3.org/2000/svg">
<g id="money-bag" clip-path="url(#clip0_1200_11128)">
<g id="Group">
<path id="Vector" d="M12.3438 0.881211C11.9295 0.479492 11.2881 0 10.586 0C9.44673 0 8.46712 1.26227 8.35955 1.40648C8.22623 1.58387 8.20505 1.82133 8.30404 2.01988L10.2238 5.89844H14.4636L16.3836 2.01988C16.4826 1.82133 16.4614 1.58387 16.3281 1.40648C16.2205 1.26227 15.2409 0 14.1016 0C13.3995 0 12.7581 0.479492 12.3438 0.881211Z" fill="#0085A5"/>
<path id="Vector_2" d="M12.9296 7.07031V7.17102C12.9296 8.06996 13.2941 8.95 13.9298 9.5857C14.1587 9.81457 14.1587 10.1854 13.9298 10.4143C13.701 10.6431 13.3302 10.6431 13.1013 10.4143C12.802 10.1156 12.548 9.77625 12.3437 9.40945C12.1394 9.77625 11.8853 10.1155 11.586 10.4143C11.3572 10.6431 10.9864 10.6431 10.7575 10.4143C10.5286 10.1854 10.5286 9.81457 10.7575 9.5857C11.3933 8.95 11.7578 8.06996 11.7578 7.17102V7.07031H9.56238C8.21082 8.3477 6.8698 10.0838 5.97058 11.7578H11.1718C12.1411 11.7578 12.9296 12.5463 12.9296 13.5156V19.4141C12.9296 19.6218 12.8871 19.8149 12.8206 20H13.6014C16.9755 20 20 19.2478 20 15.8594C20 13.1486 17.3561 9.28996 15.0834 7.07031H12.9296Z" fill="#0085A5"/>
<path id="Vector_3" d="M5.89844 17.0312C6.22204 17.0312 6.48438 16.7689 6.48438 16.4453C6.48438 16.1217 6.22204 15.8594 5.89844 15.8594C5.57483 15.8594 5.3125 16.1217 5.3125 16.4453C5.3125 16.7689 5.57483 17.0312 5.89844 17.0312Z" fill="#0085A5"/>
<path id="Vector_4" d="M0.585938 20H11.1719C11.4957 20 11.7578 19.7379 11.7578 19.4141V13.5156C11.7578 13.1918 11.4957 12.9297 11.1719 12.9297H0.585938C0.26207 12.9297 0 13.1918 0 13.5156V19.4141C0 19.7379 0.26207 20 0.585938 20ZM9.41406 15.8594C9.73766 15.8594 10 16.1216 10 16.4453C10 16.7689 9.73766 17.0312 9.41406 17.0312C9.09047 17.0312 8.82812 16.7689 8.82812 16.4453C8.82812 16.1216 9.09047 15.8594 9.41406 15.8594ZM5.89844 14.6875C6.86773 14.6875 7.65625 15.476 7.65625 16.4453C7.65625 17.4146 6.86773 18.2031 5.89844 18.2031C4.92914 18.2031 4.14062 17.4146 4.14062 16.4453C4.14062 15.476 4.92914 14.6875 5.89844 14.6875ZM2.38281 15.8594C2.70641 15.8594 2.96875 16.1216 2.96875 16.4453C2.96875 16.7689 2.70641 17.0312 2.38281 17.0312C2.05922 17.0312 1.79688 16.7689 1.79688 16.4453C1.79688 16.1216 2.05922 15.8594 2.38281 15.8594Z" fill="#0085A5"/>
</g>
</g>
<defs>
<clipPath id="clip0_1200_11128">
<rect width="20" height="20" fill="white"/>
</clipPath>
</defs>
</svg>
