<svg width="20" height="20" viewBox="0 0 20 20" fill="none" xmlns="http://www.w3.org/2000/svg">
<g clip-path="url(#clip0_1048_9399)">
<path d="M10.2083 10C9.86333 10 9.58333 9.72 9.58333 9.375V8.75H3.75V9.375C3.75 9.72 3.47 10 3.125 10C2.78 10 2.5 9.72 2.5 9.375V8.125C2.5 7.78 2.78 7.5 3.125 7.5H10.2083C10.5533 7.5 10.8333 7.78 10.8333 8.125V9.375C10.8333 9.72 10.5533 10 10.2083 10Z" fill="#444444"/>
<path d="M6.66663 15.625C6.32163 15.625 6.04163 15.345 6.04163 15V8.33331C6.04163 7.98831 6.32163 7.70831 6.66663 7.70831C7.01163 7.70831 7.29163 7.98831 7.29163 8.33331V15C7.29163 15.345 7.01163 15.625 6.66663 15.625Z" fill="#444444"/>
<path d="M7.70833 15.8333H5.625C5.28 15.8333 5 15.5533 5 15.2083C5 14.8633 5.28 14.5833 5.625 14.5833H7.70833C8.05333 14.5833 8.33333 14.8633 8.33333 15.2083C8.33333 15.5533 8.05333 15.8333 7.70833 15.8333Z" fill="#444444"/>
<path d="M16.875 8.75H13.125C12.78 8.75 12.5 8.47 12.5 8.125C12.5 7.78 12.78 7.5 13.125 7.5H16.875C17.22 7.5 17.5 7.78 17.5 8.125C17.5 8.47 17.22 8.75 16.875 8.75Z" fill="#444444"/>
<path d="M16.875 12.0833H13.125C12.78 12.0833 12.5 11.8033 12.5 11.4583C12.5 11.1133 12.78 10.8333 13.125 10.8333H16.875C17.22 10.8333 17.5 11.1133 17.5 11.4583C17.5 11.8033 17.22 12.0833 16.875 12.0833Z" fill="#444444"/>
<path d="M16.875 15.4167H13.125C12.78 15.4167 12.5 15.1367 12.5 14.7917C12.5 14.4467 12.78 14.1667 13.125 14.1667H16.875C17.22 14.1667 17.5 14.4467 17.5 14.7917C17.5 15.1367 17.22 15.4167 16.875 15.4167Z" fill="#444444"/>
<path d="M17.7083 19.1666H2.29167C1.0275 19.1666 0 18.1391 0 16.875V3.12498C0 1.86081 1.0275 0.833313 2.29167 0.833313H17.7083C18.9725 0.833313 20 1.86081 20 3.12498V16.875C20 18.1391 18.9725 19.1666 17.7083 19.1666ZM2.29167 2.08331C1.7175 2.08331 1.25 2.55081 1.25 3.12498V16.875C1.25 17.4491 1.7175 17.9166 2.29167 17.9166H17.7083C18.2825 17.9166 18.75 17.4491 18.75 16.875V3.12498C18.75 2.55081 18.2825 2.08331 17.7083 2.08331H2.29167Z" fill="#444444"/>
<path d="M19.375 5H0.625C0.28 5 0 4.72 0 4.375C0 4.03 0.28 3.75 0.625 3.75H19.375C19.72 3.75 20 4.03 20 4.375C20 4.72 19.72 5 19.375 5Z" fill="#444444"/>
</g>
<defs>
<clipPath id="clip0_1048_9399">
<rect width="20" height="20" fill="white"/>
</clipPath>
</defs>
</svg>
