<svg width="20" height="19" viewBox="0 0 20 19" fill="none" xmlns="http://www.w3.org/2000/svg">
<path d="M20 4.83342V5.66675C20 6.12675 19.6275 6.50008 19.1667 6.50008C18.7058 6.50008 18.3333 6.12675 18.3333 5.66675V4.83342C18.3333 3.45508 17.2117 2.33341 15.8333 2.33341H4.16667C2.78833 2.33341 1.66667 3.45508 1.66667 4.83342V13.1667C1.66667 14.5451 2.78833 15.6667 4.16667 15.6667H6.66667C7.1275 15.6667 7.5 16.0401 7.5 16.5001C7.5 16.9601 7.1275 17.3334 6.66667 17.3334H4.16667C1.86917 17.3334 0 15.4642 0 13.1667V4.83342C0 2.53591 1.86917 0.666748 4.16667 0.666748H15.8333C18.1308 0.666748 20 2.53591 20 4.83342ZM12.5 6.50008H15.8333C16.2942 6.50008 16.6667 6.12675 16.6667 5.66675C16.6667 5.20675 16.2942 4.83342 15.8333 4.83342H12.5C12.0392 4.83342 11.6667 5.20675 11.6667 5.66675C11.6667 6.12675 12.0392 6.50008 12.5 6.50008ZM19.2675 8.89925C19.7392 9.37091 20 9.99925 20 10.6667C20 11.3342 19.7392 11.9626 19.2675 12.4351L13.6783 18.0243C13.0492 18.6534 12.2117 19.0009 11.3217 19.0009H10C9.53917 19.0009 9.16667 18.6276 9.16667 18.1676V16.8459C9.16667 15.9559 9.51333 15.1184 10.1433 14.4892L15.7325 8.90008C16.7075 7.92508 18.2925 7.92508 19.2675 8.90008V8.89925ZM18.3333 10.6667C18.3333 10.4442 18.2467 10.2351 18.0892 10.0776C17.7633 9.75175 17.2367 9.75258 16.9108 10.0776L11.3217 15.6667C11.0117 15.9776 10.8333 16.4067 10.8333 16.8451V17.3334H11.3217C11.7667 17.3334 12.185 17.1601 12.5 16.8451L18.0892 11.2559C18.2467 11.0984 18.3333 10.8892 18.3333 10.6667ZM7.5 11.5001H5.61C5.31333 11.5001 5.03667 11.3401 4.8875 11.0834C4.65833 10.6842 4.14917 10.5467 3.74917 10.7792C3.35083 11.0101 3.21417 11.5192 3.44583 11.9176C3.89083 12.6884 4.72083 13.1667 5.61083 13.1667H5.83417C5.83417 13.6267 6.20667 14.0001 6.6675 14.0001C7.12833 14.0001 7.50083 13.6267 7.50083 13.1667C8.87917 13.1667 10.0008 12.0451 10.0008 10.6667C10.0008 9.53341 9.18917 8.57508 8.07167 8.38925L5.5375 7.96675C5.22667 7.91508 5.00083 7.64842 5.00083 7.33342C5.00083 6.87425 5.37417 6.50008 5.83417 6.50008H7.72417C8.02083 6.50008 8.2975 6.66008 8.44667 6.91675C8.67583 7.31508 9.18417 7.45175 9.585 7.22091C9.98333 6.99008 10.12 6.48091 9.88833 6.08258C9.44333 5.31175 8.61333 4.83258 7.72333 4.83258H7.5C7.5 4.37258 7.1275 3.99925 6.66667 3.99925C6.20583 3.99925 5.83333 4.37258 5.83333 4.83258C4.455 4.83258 3.33333 5.95425 3.33333 7.33258C3.33333 8.46591 4.145 9.42425 5.2625 9.61008L7.79667 10.0326C8.1075 10.0842 8.33333 10.3509 8.33333 10.6659C8.33333 11.1251 7.96 11.4992 7.5 11.4992V11.5001ZM11.6667 9.00008C11.6667 9.46008 12.04 9.83342 12.5 9.83342C12.96 9.83342 13.3333 9.46008 13.3333 9.00008C13.3333 8.54008 12.96 8.16675 12.5 8.16675C12.04 8.16675 11.6667 8.54008 11.6667 9.00008Z" fill="#444444"/>
</svg>
