<svg width="20" height="20" viewBox="0 0 20 20" fill="none" xmlns="http://www.w3.org/2000/svg">
<g clip-path="url(#clip0_1871_11744)">
<path d="M4.22512 17.1942C4.22012 17.205 4.22512 17.1833 4.22512 17.1942V17.1942Z" fill="#273043"/>
<path d="M18.61 17.9083C18.3914 18.084 18.1355 18.2073 17.8618 18.2685C17.5881 18.3298 17.304 18.3275 17.0314 18.2617C16.7588 18.1959 16.5049 18.0685 16.2892 17.8892C16.0736 17.7099 15.9019 17.4835 15.7875 17.2275C15.7285 17.066 15.6214 16.9265 15.4805 16.828C15.3397 16.7295 15.1719 16.6766 15 16.6766C14.8281 16.6766 14.6603 16.7295 14.5195 16.828C14.3786 16.9265 14.2715 17.066 14.2125 17.2275C14.0579 17.5506 13.8151 17.8234 13.5121 18.0144C13.2091 18.2053 12.8582 18.3067 12.5 18.3067C12.1418 18.3067 11.7909 18.2053 11.4879 18.0144C11.1849 17.8234 10.9421 17.5506 10.7875 17.2275C10.7285 17.066 10.6214 16.9265 10.4805 16.828C10.3397 16.7295 10.1719 16.6766 10 16.6766C9.82809 16.6766 9.66035 16.7295 9.51948 16.828C9.37862 16.9265 9.27145 17.066 9.2125 17.2275C9.05723 17.5539 8.81185 17.8291 8.50531 18.0206C8.19877 18.2121 7.84385 18.3119 7.48242 18.3084C7.12099 18.3048 6.76813 18.1979 6.46545 18.0003C6.16278 17.8027 5.92292 17.5227 5.77417 17.1933C5.70899 17.042 5.6009 16.913 5.46324 16.8224C5.32558 16.7318 5.16438 16.6835 4.99958 16.6835C4.83478 16.6835 4.67359 16.7318 4.53593 16.8224C4.39827 16.913 4.29017 17.042 4.225 17.1933C4.11332 17.4529 3.94332 17.6833 3.7282 17.8665C3.51307 18.0498 3.25862 18.181 2.98457 18.25C2.71053 18.319 2.42427 18.3239 2.14802 18.2644C1.87177 18.2048 1.61295 18.0824 1.39167 17.9067C1.31014 17.8334 1.21499 17.777 1.11165 17.7406C1.00831 17.7041 0.898801 17.6884 0.789383 17.6943C0.679964 17.7002 0.572776 17.7275 0.473937 17.7748C0.375098 17.8221 0.286545 17.8885 0.213333 17.97C0.140121 18.0515 0.083684 18.1467 0.0472448 18.25C0.0108056 18.3533 -0.00492249 18.4629 0.000958551 18.5723C0.0068396 18.6817 0.0342146 18.7889 0.0815206 18.8877C0.128827 18.9866 0.195137 19.0751 0.276666 19.1483C0.941529 19.718 1.79633 20.0169 2.67135 19.9856C3.54637 19.9542 4.3776 19.595 5 18.9792C5.67267 19.6238 6.56833 19.9836 7.5 19.9836C8.43167 19.9836 9.32733 19.6238 10 18.9792C10.6727 19.6238 11.5683 19.9836 12.5 19.9836C13.4317 19.9836 14.3273 19.6238 15 18.9792C15.6226 19.5948 16.4541 19.9537 17.3291 19.9846C18.2042 20.0155 19.0589 19.7161 19.7233 19.1458C19.875 18.9951 19.9629 18.7918 19.9689 18.578C19.9749 18.3643 19.8984 18.1564 19.7554 17.9974C19.6124 17.8384 19.4137 17.7405 19.2005 17.7239C18.9873 17.7074 18.7759 17.7734 18.61 17.9083Z" fill="#273043"/>
<path d="M1.66668 14.1667V9.30755C1.66672 9.08656 1.75455 8.87463 1.91084 8.71839L8.23168 2.39922C8.70143 1.93166 9.33723 1.66917 10 1.66917C10.6628 1.66917 11.2986 1.93166 11.7683 2.39922L18.0892 8.72089C18.2434 8.87615 18.331 9.08541 18.3333 9.30422V14.1667C18.3333 14.3877 18.4211 14.5997 18.5774 14.756C18.7337 14.9123 18.9457 15.0001 19.1667 15.0001C19.3877 15.0001 19.5997 14.9123 19.7559 14.756C19.9122 14.5997 20 14.3877 20 14.1667V9.30755C20.0009 8.97913 19.9367 8.65378 19.8109 8.35038C19.6852 8.04697 19.5005 7.77154 19.2675 7.54005L12.9467 1.21839C12.1644 0.438379 11.1047 0.000366211 10 0.000366211C8.89529 0.000366211 7.83564 0.438379 7.05334 1.21839L0.73251 7.54005C0.499531 7.77154 0.314818 8.04697 0.189079 8.35038C0.0633394 8.65378 -0.000925334 8.97913 1.00662e-05 9.30755V14.1667C1.00662e-05 14.3877 0.0878074 14.5997 0.244088 14.756C0.400368 14.9123 0.61233 15.0001 0.833343 15.0001C1.05436 15.0001 1.26632 14.9123 1.4226 14.756C1.57888 14.5997 1.66668 14.3877 1.66668 14.1667Z" fill="#273043"/>
<path d="M9.99997 10.8591C9.0867 10.8595 8.19883 11.1599 7.47295 11.7141C6.74707 12.2683 6.2234 13.0457 5.98247 13.9266C5.94679 14.0512 5.94037 14.1824 5.96371 14.3099C5.98705 14.4374 6.03952 14.5578 6.11703 14.6617C6.19454 14.7655 6.295 14.8501 6.41057 14.9088C6.52614 14.9675 6.6537 14.9987 6.78331 15C6.97247 14.9949 7.1547 14.9276 7.30185 14.8086C7.449 14.6897 7.55289 14.5255 7.59747 14.3416C7.74749 13.8203 8.063 13.362 8.49638 13.0357C8.92977 12.7094 9.45751 12.533 9.99997 12.533C10.5424 12.533 11.0702 12.7094 11.5036 13.0357C11.9369 13.362 12.2525 13.8203 12.4025 14.3416C12.4471 14.5255 12.5509 14.6897 12.6981 14.8086C12.8452 14.9276 13.0275 14.9949 13.2166 15C13.3462 14.9987 13.4738 14.9675 13.5894 14.9088C13.705 14.8501 13.8054 14.7655 13.8829 14.6617C13.9604 14.5578 14.0129 14.4374 14.0362 14.3099C14.0596 14.1824 14.0532 14.0512 14.0175 13.9266C13.7766 13.0457 13.2529 12.2683 12.527 11.7141C11.8011 11.1599 10.9132 10.8595 9.99997 10.8591Z" fill="#273043"/>
</g>
<defs>
<clipPath id="clip0_1871_11744">
<rect width="20" height="20" fill="white"/>
</clipPath>
</defs>
</svg>
