<svg width="20" height="20" viewBox="0 0 20 20" fill="none" xmlns="http://www.w3.org/2000/svg">
<g id="cross-circle 1" clip-path="url(#clip0_1105_9790)">
<path id="Vector" d="M13.3333 6.66666C13.1771 6.51043 12.9651 6.42267 12.7442 6.42267C12.5232 6.42267 12.3113 6.51043 12.155 6.66666L10 8.82166L7.845 6.66666C7.68783 6.51486 7.47733 6.43086 7.25883 6.43276C7.04033 6.43466 6.83132 6.5223 6.67682 6.67681C6.52231 6.83132 6.43467 7.04033 6.43277 7.25882C6.43087 7.47732 6.51487 7.68782 6.66667 7.84499L8.82167 9.99999L6.66667 12.155C6.51487 12.3122 6.43087 12.5227 6.43277 12.7412C6.43467 12.9597 6.52231 13.1687 6.67682 13.3232C6.83132 13.4777 7.04033 13.5653 7.25883 13.5672C7.47733 13.5691 7.68783 13.4851 7.845 13.3333L10 11.1783L12.155 13.3333C12.3122 13.4851 12.5227 13.5691 12.7412 13.5672C12.9597 13.5653 13.1687 13.4777 13.3232 13.3232C13.4777 13.1687 13.5653 12.9597 13.5672 12.7412C13.5691 12.5227 13.4851 12.3122 13.3333 12.155L11.1783 9.99999L13.3333 7.84499C13.4896 7.68872 13.5773 7.47679 13.5773 7.25582C13.5773 7.03485 13.4896 6.82293 13.3333 6.66666Z" fill="#ED2626"/>
<path id="Vector_2" d="M10 0C8.02219 0 6.08879 0.58649 4.4443 1.6853C2.79981 2.78412 1.51809 4.3459 0.761209 6.17317C0.00433286 8.00043 -0.193701 10.0111 0.192152 11.9509C0.578004 13.8907 1.53041 15.6725 2.92894 17.0711C4.32746 18.4696 6.10929 19.422 8.0491 19.8079C9.98891 20.1937 11.9996 19.9957 13.8268 19.2388C15.6541 18.4819 17.2159 17.2002 18.3147 15.5557C19.4135 13.9112 20 11.9778 20 10C19.9971 7.34872 18.9426 4.80684 17.0679 2.9321C15.1932 1.05736 12.6513 0.00286757 10 0V0ZM10 18.3333C8.35183 18.3333 6.74066 17.8446 5.37025 16.9289C3.99984 16.0132 2.93174 14.7117 2.30101 13.189C1.67028 11.6663 1.50525 9.99076 1.82679 8.37425C2.14834 6.75774 2.94201 5.27288 4.10745 4.10744C5.27289 2.94201 6.75774 2.14833 8.37425 1.82679C9.99076 1.50525 11.6663 1.67027 13.189 2.301C14.7118 2.93173 16.0132 3.99984 16.9289 5.37025C17.8446 6.74066 18.3333 8.35182 18.3333 10C18.3309 12.2094 17.4522 14.3276 15.8899 15.8899C14.3276 17.4522 12.2094 18.3309 10 18.3333Z" fill="#ED2626"/>
</g>
<defs>
<clipPath id="clip0_1105_9790">
<rect width="20" height="20" fill="white"/>
</clipPath>
</defs>
</svg>
