<svg width="20" height="20" viewBox="0 0 20 20" fill="none" xmlns="http://www.w3.org/2000/svg">
<g id="star-3 1" clip-path="url(#clip0_1200_11142)">
<path id="Vector" d="M0.0522957 7.45094C0.183981 7.0576 0.54318 6.77911 0.966465 6.74191L6.73988 6.23281L9.02156 1.04428C9.19002 0.663082 9.57333 0.417053 9.99997 0.417053C10.4266 0.417053 10.8101 0.663082 10.9775 1.04428L13.2592 6.23281L19.0335 6.74191C19.4568 6.77985 19.8152 7.05834 19.9476 7.45094C20.0793 7.84429 19.9577 8.27573 19.6376 8.54844L15.2733 12.2654L16.5601 17.7702C16.6543 18.175 16.4925 18.5935 16.1468 18.8363C15.9609 18.9674 15.7426 19.033 15.5234 19.033C15.3351 19.033 15.1467 18.9843 14.9784 18.8865L9.99997 15.9952L5.02247 18.8865C4.65732 19.0985 4.19818 19.079 3.85317 18.8363C3.5074 18.5935 3.34566 18.175 3.4398 17.7702L4.7266 12.2654L0.36236 8.54844C0.0423775 8.27573 -0.0793896 7.84518 0.0522957 7.45094Z" fill="#27AE60"/>
</g>
<defs>
<clipPath id="clip0_1200_11142">
<rect width="20" height="19.4258" fill="white" transform="matrix(-1 0 0 1 20 0)"/>
</clipPath>
</defs>
</svg>
