<svg width="20" height="20" viewBox="0 0 20 20" fill="none" xmlns="http://www.w3.org/2000/svg">
<g id="title" clip-path="url(#clip0_1204_11512)">
<g id="Group">
<path id="Vector" d="M10.2083 10C9.86333 10 9.58333 9.72 9.58333 9.375V8.75H3.75V9.375C3.75 9.72 3.47 10 3.125 10C2.78 10 2.5 9.72 2.5 9.375V8.125C2.5 7.78 2.78 7.5 3.125 7.5H10.2083C10.5533 7.5 10.8333 7.78 10.8333 8.125V9.375C10.8333 9.72 10.5533 10 10.2083 10Z" fill="#444444"/>
</g>
<g id="Group_2">
<path id="Vector_2" d="M6.6665 15.625C6.3215 15.625 6.0415 15.345 6.0415 15V8.33337C6.0415 7.98837 6.3215 7.70837 6.6665 7.70837C7.0115 7.70837 7.2915 7.98837 7.2915 8.33337V15C7.2915 15.345 7.0115 15.625 6.6665 15.625Z" fill="#444444"/>
</g>
<g id="Group_3">
<path id="Vector_3" d="M7.70833 15.8334H5.625C5.28 15.8334 5 15.5534 5 15.2084C5 14.8634 5.28 14.5834 5.625 14.5834H7.70833C8.05333 14.5834 8.33333 14.8634 8.33333 15.2084C8.33333 15.5534 8.05333 15.8334 7.70833 15.8334Z" fill="#444444"/>
</g>
<g id="Group_4">
<path id="Vector_4" d="M16.875 8.75H13.125C12.78 8.75 12.5 8.47 12.5 8.125C12.5 7.78 12.78 7.5 13.125 7.5H16.875C17.22 7.5 17.5 7.78 17.5 8.125C17.5 8.47 17.22 8.75 16.875 8.75Z" fill="#444444"/>
</g>
<g id="Group_5">
<path id="Vector_5" d="M16.875 12.0834H13.125C12.78 12.0834 12.5 11.8034 12.5 11.4584C12.5 11.1134 12.78 10.8334 13.125 10.8334H16.875C17.22 10.8334 17.5 11.1134 17.5 11.4584C17.5 11.8034 17.22 12.0834 16.875 12.0834Z" fill="#444444"/>
</g>
<g id="Group_6">
<path id="Vector_6" d="M16.875 15.4166H13.125C12.78 15.4166 12.5 15.1366 12.5 14.7916C12.5 14.4466 12.78 14.1666 13.125 14.1666H16.875C17.22 14.1666 17.5 14.4466 17.5 14.7916C17.5 15.1366 17.22 15.4166 16.875 15.4166Z" fill="#444444"/>
</g>
<g id="Group_7">
<path id="Vector_7" d="M17.7083 19.1667H2.29167C1.0275 19.1667 0 18.1392 0 16.875V3.12504C0 1.86087 1.0275 0.833374 2.29167 0.833374H17.7083C18.9725 0.833374 20 1.86087 20 3.12504V16.875C20 18.1392 18.9725 19.1667 17.7083 19.1667ZM2.29167 2.08337C1.7175 2.08337 1.25 2.55087 1.25 3.12504V16.875C1.25 17.4492 1.7175 17.9167 2.29167 17.9167H17.7083C18.2825 17.9167 18.75 17.4492 18.75 16.875V3.12504C18.75 2.55087 18.2825 2.08337 17.7083 2.08337H2.29167Z" fill="#444444"/>
</g>
<g id="Group_8">
<path id="Vector_8" d="M19.375 5H0.625C0.28 5 0 4.72 0 4.375C0 4.03 0.28 3.75 0.625 3.75H19.375C19.72 3.75 20 4.03 20 4.375C20 4.72 19.72 5 19.375 5Z" fill="#444444"/>
</g>
</g>
<defs>
<clipPath id="clip0_1204_11512">
<rect width="20" height="20" fill="white"/>
</clipPath>
</defs>
</svg>
