<svg width="20" height="20" viewBox="0 0 20 20" fill="none" xmlns="http://www.w3.org/2000/svg">
<path fill-rule="evenodd" clip-rule="evenodd" d="M10 1.875C6.8934 1.875 4.375 4.3934 4.375 7.5C4.375 10.6066 6.8934 13.125 10 13.125C13.1066 13.125 15.625 10.6066 15.625 7.5C15.625 4.3934 13.1066 1.875 10 1.875ZM3.125 7.5C3.125 3.70304 6.20304 0.625 10 0.625C13.7969 0.625 16.875 3.70304 16.875 7.5C16.875 11.2969 13.7969 14.375 10 14.375C6.20304 14.375 3.125 11.2969 3.125 7.5Z" fill="#273043"/>
<path fill-rule="evenodd" clip-rule="evenodd" d="M10 4.375C8.27411 4.375 6.875 5.77411 6.875 7.5C6.875 9.22592 8.27411 10.625 10 10.625C11.7259 10.625 13.125 9.22592 13.125 7.5C13.125 5.77411 11.7259 4.375 10 4.375ZM5.625 7.5C5.625 5.08375 7.58375 3.125 10 3.125C12.4162 3.125 14.375 5.08375 14.375 7.5C14.375 9.91625 12.4162 11.875 10 11.875C7.58375 11.875 5.625 9.91625 5.625 7.5Z" fill="#273043"/>
<path fill-rule="evenodd" clip-rule="evenodd" d="M6.25 11.875C6.59517 11.875 6.875 12.1548 6.875 12.5V17.7388L9.7205 16.316C9.89642 16.228 10.1036 16.228 10.2795 16.316L13.125 17.7388V12.5C13.125 12.1548 13.4048 11.875 13.75 11.875C14.0952 11.875 14.375 12.1548 14.375 12.5V18.75C14.375 18.9666 14.2628 19.1678 14.0786 19.2817C13.8943 19.3955 13.6643 19.4059 13.4705 19.309L10 17.5737L6.52951 19.309C6.33577 19.4059 6.10568 19.3955 5.92142 19.2817C5.73716 19.1678 5.625 18.9666 5.625 18.75V12.5C5.625 12.1548 5.90483 11.875 6.25 11.875Z" fill="#273043"/>
</svg>
